<mxfile host="Electron" modified="2025-04-08T07:46:01.625Z" agent="Mozilla/5.0 (Windows NT 10.0; Win64; x64) AppleWebKit/537.36 (KHTML, like Gecko) draw.io/24.0.4 Chrome/120.0.6099.109 Electron/28.1.0 Safari/537.36" etag="j3FQVtJAIIXTxrLNsfOy" version="24.0.4" type="device">
  <diagram name="ページ1" id="SqQ7CckuoGQA1XVf1MXq">
    <mxGraphModel dx="1659" dy="958" grid="0" gridSize="10" guides="1" tooltips="1" connect="0" arrows="1" fold="1" page="1" pageScale="1" pageWidth="1654" pageHeight="1169" math="0" shadow="0">
      <root>
        <mxCell id="0" />
        <mxCell id="1" parent="0" />
        <mxCell id="nt9nF4ObV31x2D_x99Zk-2" value="Windows 192.168.0.20/24" style="swimlane;whiteSpace=wrap;html=1;" parent="1" vertex="1">
          <mxGeometry x="1020" y="630" width="451" height="240" as="geometry" />
        </mxCell>
        <mxCell id="nt9nF4ObV31x2D_x99Zk-4" value="2025-04-05.log" style="rounded=1;whiteSpace=wrap;html=1;fontFamily=PlemolJP;" parent="nt9nF4ObV31x2D_x99Zk-2" vertex="1">
          <mxGeometry x="220" y="150" width="200" height="60" as="geometry" />
        </mxCell>
        <mxCell id="nj3evoLdlnzbY02WZ-ZK-1" value="Output" style="text;html=1;align=center;verticalAlign=middle;whiteSpace=wrap;rounded=0;" vertex="1" parent="nt9nF4ObV31x2D_x99Zk-2">
          <mxGeometry x="144" y="154" width="60" height="30" as="geometry" />
        </mxCell>
        <mxCell id="nt9nF4ObV31x2D_x99Zk-3" value="Linux 192.168.0.44/24" style="swimlane;whiteSpace=wrap;html=1;" parent="1" vertex="1">
          <mxGeometry x="50" y="220" width="790" height="650" as="geometry">
            <mxRectangle x="50" y="220" width="160" height="30" as="alternateBounds" />
          </mxGeometry>
        </mxCell>
        <mxCell id="nt9nF4ObV31x2D_x99Zk-16" value="Monitor" style="text;html=1;align=center;verticalAlign=middle;whiteSpace=wrap;rounded=0;" parent="nt9nF4ObV31x2D_x99Zk-3" vertex="1">
          <mxGeometry x="360" y="470" width="60" height="30" as="geometry" />
        </mxCell>
        <mxCell id="nt9nF4ObV31x2D_x99Zk-14" value="&lt;div style=&quot;color: rgb(204, 204, 204); font-family: PlemolJP, Consolas, &amp;quot;Courier New&amp;quot;, monospace; font-size: 14px; line-height: 19px; white-space: pre;&quot;&gt;&lt;div style=&quot;line-height: 19px;&quot;&gt;&lt;div style=&quot;line-height: 19px;&quot;&gt;&lt;div style=&quot;line-height: 19px;&quot;&gt;tail -f /var/log/syslog | grep postgres&lt;/div&gt;&lt;/div&gt;&lt;/div&gt;&lt;/div&gt;" style="rounded=0;whiteSpace=wrap;html=1;align=center;labelBackgroundColor=none;spacingLeft=5;" parent="nt9nF4ObV31x2D_x99Zk-3" vertex="1">
          <mxGeometry x="410" y="550" width="350" height="50" as="geometry" />
        </mxCell>
        <mxCell id="0D5BUlfB0RghyGrrEAo7-1" value="Output" style="text;html=1;align=center;verticalAlign=middle;whiteSpace=wrap;rounded=0;" parent="nt9nF4ObV31x2D_x99Zk-3" vertex="1">
          <mxGeometry x="110" y="470" width="60" height="30" as="geometry" />
        </mxCell>
        <mxCell id="0D5BUlfB0RghyGrrEAo7-2" value="Output" style="text;html=1;align=center;verticalAlign=middle;whiteSpace=wrap;rounded=0;" parent="nt9nF4ObV31x2D_x99Zk-3" vertex="1">
          <mxGeometry x="110" y="365" width="60" height="30" as="geometry" />
        </mxCell>
        <mxCell id="0D5BUlfB0RghyGrrEAo7-3" value="Reference" style="text;html=1;align=center;verticalAlign=middle;whiteSpace=wrap;rounded=0;" parent="nt9nF4ObV31x2D_x99Zk-3" vertex="1">
          <mxGeometry x="110" y="60" width="60" height="30" as="geometry" />
        </mxCell>
        <mxCell id="nt9nF4ObV31x2D_x99Zk-20" style="edgeStyle=orthogonalEdgeStyle;rounded=0;orthogonalLoop=1;jettySize=auto;html=1;exitX=0.5;exitY=1;exitDx=0;exitDy=0;entryX=-0.003;entryY=0.567;entryDx=0;entryDy=0;entryPerimeter=0;" parent="1" source="JUo1LpAPdXD4S511wLFp-1" target="nt9nF4ObV31x2D_x99Zk-4" edge="1">
          <mxGeometry relative="1" as="geometry">
            <mxPoint x="1200" y="810" as="targetPoint" />
          </mxGeometry>
        </mxCell>
        <mxCell id="JUo1LpAPdXD4S511wLFp-1" value="syslog_receiver" style="rounded=1;whiteSpace=wrap;html=1;fontFamily=PlemolJP;" parent="1" vertex="1">
          <mxGeometry x="1060" y="690" width="200" height="60" as="geometry" />
        </mxCell>
        <mxCell id="nt9nF4ObV31x2D_x99Zk-13" style="edgeStyle=orthogonalEdgeStyle;rounded=0;orthogonalLoop=1;jettySize=auto;html=1;entryX=1;entryY=0.5;entryDx=0;entryDy=0;" parent="1" source="nt9nF4ObV31x2D_x99Zk-1" target="nt9nF4ObV31x2D_x99Zk-5" edge="1">
          <mxGeometry relative="1" as="geometry" />
        </mxCell>
        <mxCell id="nt9nF4ObV31x2D_x99Zk-15" style="edgeStyle=orthogonalEdgeStyle;rounded=0;orthogonalLoop=1;jettySize=auto;html=1;entryX=0;entryY=0.5;entryDx=0;entryDy=0;" parent="1" source="nt9nF4ObV31x2D_x99Zk-1" target="JUo1LpAPdXD4S511wLFp-1" edge="1">
          <mxGeometry relative="1" as="geometry" />
        </mxCell>
        <mxCell id="nt9nF4ObV31x2D_x99Zk-1" value="/usr/local/bin/monitor_postgresql_log.sh" style="rounded=1;whiteSpace=wrap;html=1;fontFamily=PlemolJP;" parent="1" vertex="1">
          <mxGeometry x="490" y="690" width="290" height="60" as="geometry" />
        </mxCell>
        <mxCell id="nt9nF4ObV31x2D_x99Zk-5" value="/var/log/syslog" style="rounded=1;whiteSpace=wrap;html=1;fontFamily=PlemolJP;" parent="1" vertex="1">
          <mxGeometry x="240" y="690" width="140" height="60" as="geometry" />
        </mxCell>
        <mxCell id="nt9nF4ObV31x2D_x99Zk-6" value="/var/lib/postgresql/14/main/log/postgresql-2025-04-05_175000.log" style="rounded=1;whiteSpace=wrap;html=1;fontFamily=PlemolJP;" parent="1" vertex="1">
          <mxGeometry x="240" y="584.5" width="450" height="60" as="geometry" />
        </mxCell>
        <mxCell id="nt9nF4ObV31x2D_x99Zk-9" style="edgeStyle=orthogonalEdgeStyle;rounded=0;orthogonalLoop=1;jettySize=auto;html=1;entryX=0;entryY=0.5;entryDx=0;entryDy=0;exitX=0.5;exitY=1;exitDx=0;exitDy=0;" parent="1" source="nt9nF4ObV31x2D_x99Zk-8" target="nt9nF4ObV31x2D_x99Zk-6" edge="1">
          <mxGeometry relative="1" as="geometry" />
        </mxCell>
        <mxCell id="nt9nF4ObV31x2D_x99Zk-10" style="edgeStyle=orthogonalEdgeStyle;rounded=0;orthogonalLoop=1;jettySize=auto;html=1;entryX=0;entryY=0.5;entryDx=0;entryDy=0;exitX=0.5;exitY=1;exitDx=0;exitDy=0;" parent="1" source="nt9nF4ObV31x2D_x99Zk-8" target="nt9nF4ObV31x2D_x99Zk-5" edge="1">
          <mxGeometry relative="1" as="geometry" />
        </mxCell>
        <mxCell id="nt9nF4ObV31x2D_x99Zk-19" style="edgeStyle=orthogonalEdgeStyle;rounded=0;orthogonalLoop=1;jettySize=auto;html=1;entryX=0;entryY=0.5;entryDx=0;entryDy=0;exitX=0.5;exitY=0;exitDx=0;exitDy=0;" parent="1" source="nt9nF4ObV31x2D_x99Zk-8" target="nt9nF4ObV31x2D_x99Zk-11" edge="1">
          <mxGeometry relative="1" as="geometry" />
        </mxCell>
        <mxCell id="nt9nF4ObV31x2D_x99Zk-8" value="PostgreSQL" style="rounded=1;whiteSpace=wrap;html=1;fontFamily=PlemolJP;" parent="1" vertex="1">
          <mxGeometry x="90" y="435" width="100" height="60" as="geometry" />
        </mxCell>
        <mxCell id="nt9nF4ObV31x2D_x99Zk-11" value="/etc/postgresql/14/main/postgresql.conf" style="rounded=1;whiteSpace=wrap;html=1;fontFamily=PlemolJP;" parent="1" vertex="1">
          <mxGeometry x="240" y="280" width="370" height="60" as="geometry" />
        </mxCell>
        <mxCell id="nt9nF4ObV31x2D_x99Zk-12" value="&lt;div style=&quot;color: rgb(204, 204, 204); font-family: PlemolJP, Consolas, &amp;quot;Courier New&amp;quot;, monospace; line-height: 19px; white-space: pre;&quot;&gt;&lt;div style=&quot;line-height: 19px;&quot;&gt;&lt;div&gt;&lt;div style=&quot;line-height: 19px;&quot;&gt;&lt;div&gt;&lt;span style=&quot;color: #569cd6;font-weight: bold;&quot;&gt;# - Where to Log -&lt;/span&gt;&lt;/div&gt;&lt;div&gt;log_destination = &#39;stderr,syslog&#39;&lt;/div&gt;&lt;/div&gt;&lt;/div&gt;&lt;div&gt;&lt;span style=&quot;color: #569cd6;font-weight: bold;&quot;&gt;&lt;br&gt;&lt;/span&gt;&lt;/div&gt;&lt;div&gt;&lt;span style=&quot;color: #569cd6;font-weight: bold;&quot;&gt;# These are relevant when logging to syslog:&lt;/span&gt;&lt;/div&gt;&lt;div&gt;syslog_facility = &#39;LOCAL0&#39;&lt;/div&gt;&lt;div&gt;syslog_ident = &#39;postgres&#39;&lt;/div&gt;&lt;/div&gt;&lt;/div&gt;" style="rounded=0;whiteSpace=wrap;html=1;align=left;labelBackgroundColor=none;spacingLeft=5;" parent="1" vertex="1">
          <mxGeometry x="270" y="360" width="310" height="150" as="geometry" />
        </mxCell>
        <mxCell id="nt9nF4ObV31x2D_x99Zk-17" value="Send (UDP)" style="text;html=1;align=center;verticalAlign=middle;whiteSpace=wrap;rounded=0;" parent="1" vertex="1">
          <mxGeometry x="880" y="690" width="100" height="30" as="geometry" />
        </mxCell>
        <mxCell id="nt9nF4ObV31x2D_x99Zk-18" value="Port: 10000" style="text;html=1;align=center;verticalAlign=middle;whiteSpace=wrap;rounded=0;" parent="1" vertex="1">
          <mxGeometry x="880" y="720" width="100" height="30" as="geometry" />
        </mxCell>
      </root>
    </mxGraphModel>
  </diagram>
</mxfile>
